<?xml version="1.0" standalone="no"?><svg xmlns="http://www.w3.org/2000/svg" viewBox="0 0 1440 320"><path fill="#ffff" fill-opacity="1" d="M0,0L20,26.7C40,53,80,107,120,154.7C160,203,200,245,240,240C280,235,320,181,360,160C400,139,440,149,480,154.7C520,160,560,160,600,149.3C640,139,680,117,720,138.7C760,160,800,224,840,229.3C880,235,920,181,960,149.3C1000,117,1040,107,1080,128C1120,149,1160,203,1200,213.3C1240,224,1280,192,1320,170.7C1360,149,1400,139,1420,133.3L1440,128L1440,320L1420,320C1400,320,1360,320,1320,320C1280,320,1240,320,1200,320C1160,320,1120,320,1080,320C1040,320,1000,320,960,320C920,320,880,320,840,320C800,320,760,320,720,320C680,320,640,320,600,320C560,320,520,320,480,320C440,320,400,320,360,320C320,320,280,320,240,320C200,320,160,320,120,320C80,320,40,320,20,320L0,320Z"></path></svg>